<svg width="20" height="20" viewBox="0 0 20 20" fill="none" xmlns="http://www.w3.org/2000/svg"><path d="M9.99897 19.3038C8.69737 19.3038 7.48071 19.0605 6.34899 18.5737C5.21727 18.087 4.23252 17.4238 3.39474 16.5842C2.55695 15.7446 1.8976 14.7551 1.41668 13.6158C0.935769 12.4764 0.695312 11.2559 0.695312 9.95433C0.695312 8.65273 0.935769 7.43897 1.41668 6.31308C1.8976 5.18717 2.55695 4.20624 3.39474 3.37028C4.23252 2.53431 5.21727 1.87877 6.34899 1.40366C7.48071 0.928556 8.69737 0.691002 9.99897 0.691002C11.3006 0.691002 12.5172 0.928556 13.649 1.40366C14.7807 1.87877 15.7654 2.53431 16.6032 3.37028C17.441 4.20624 18.1013 5.18717 18.584 6.31308C19.0668 7.43897 19.3081 8.65273 19.3081 9.95433C19.3081 11.2559 19.0668 12.4764 18.584 13.6158C18.1013 14.7551 17.441 15.7446 16.6032 16.5842C15.7654 17.4238 14.7807 18.087 13.649 18.5737C12.5172 19.0605 11.3006 19.3038 9.99897 19.3038ZM9.9935 17.7938C10.5173 17.2475 10.9577 16.6209 11.3149 15.9142C11.6721 15.2074 11.9671 14.3651 12.2 13.3873H7.82091C8.03113 14.304 8.31484 15.1272 8.67205 15.8569C9.02925 16.5865 9.46973 17.2322 9.9935 17.7938ZM8.06201 17.5188C7.67642 16.9456 7.34886 16.3228 7.07935 15.6506C6.80983 14.9784 6.58341 14.224 6.40007 13.3873H2.98448C3.55773 14.4684 4.22448 15.3165 4.98472 15.9316C5.74495 16.5467 6.77072 17.0758 8.06201 17.5188ZM11.9479 17.4959C13.0406 17.1482 14.0243 16.6238 14.8992 15.9229C15.774 15.2219 16.4769 14.3767 17.008 13.3873H13.6208C13.4222 14.2087 13.1901 14.9555 12.9246 15.6277C12.6591 16.2999 12.3335 16.9227 11.9479 17.4959ZM2.53162 12.0288H6.14799C6.10216 11.6163 6.07542 11.2467 6.06778 10.9201C6.06014 10.5934 6.05632 10.2715 6.05632 9.95433C6.05632 9.57239 6.06396 9.23428 6.07924 8.94002C6.09452 8.64575 6.12507 8.31528 6.17091 7.94862H2.53162C2.42468 8.31528 2.35211 8.64193 2.31392 8.92856C2.27572 9.21519 2.25662 9.55711 2.25662 9.95433C2.25662 10.3479 2.27572 10.7004 2.31392 11.0117C2.35211 11.3231 2.42468 11.6621 2.53162 12.0288ZM7.56882 12.0288H12.452C12.5095 11.5552 12.545 11.1703 12.5584 10.8742C12.5719 10.5781 12.5786 10.2715 12.5786 9.95433C12.5786 9.64878 12.5719 9.3565 12.5584 9.07752C12.545 8.79853 12.5095 8.42223 12.452 7.94862H7.56882C7.50771 8.42223 7.46952 8.79853 7.45424 9.07752C7.43896 9.3565 7.43132 9.64878 7.43132 9.95433C7.43132 10.2715 7.43896 10.5781 7.45424 10.8742C7.46952 11.1703 7.50771 11.5552 7.56882 12.0288ZM13.827 12.0288H17.4608C17.5641 11.6621 17.6358 11.3231 17.6758 11.0117C17.7158 10.7004 17.7358 10.3479 17.7358 9.95433C17.7358 9.55711 17.7158 9.21519 17.6758 8.92856C17.6358 8.64193 17.5641 8.31528 17.4608 7.94862H13.85C13.8885 8.48699 13.9154 8.89476 13.9307 9.17193C13.9459 9.44909 13.9536 9.70989 13.9536 9.95433C13.9536 10.2868 13.9421 10.6011 13.9192 10.8971C13.8963 11.1932 13.8656 11.5705 13.827 12.0288ZM13.5979 6.5846H17.008C16.5075 5.53773 15.8198 4.66382 14.945 3.96286C14.0702 3.26192 13.0635 2.76813 11.925 2.4815C12.3106 3.04313 12.6361 3.6515 12.9017 4.30661C13.1672 4.96174 13.3993 5.72106 13.5979 6.5846ZM7.82091 6.5846H12.2229C12.0585 5.78218 11.7777 5.00284 11.3805 4.24659C10.9832 3.49034 10.5209 2.82559 9.9935 2.25234C9.51556 2.66119 9.10946 3.1999 8.77518 3.86847C8.44089 4.53704 8.12279 5.44241 7.82091 6.5846ZM2.98448 6.5846H6.42299C6.59104 5.7669 6.80219 5.03431 7.05643 4.38682C7.31067 3.73935 7.63822 3.11188 8.0391 2.50442C6.89691 2.79105 5.90079 3.27628 5.05072 3.96013C4.20065 4.64398 3.5119 5.5188 2.98448 6.5846Z" fill="currentColor"></path></svg>
