<svg width="23" height="24" viewBox="0 0 23 24" fill="none" xmlns="http://www.w3.org/2000/svg">
<g clip-path="url(#clip0_2371_4243)">
<path d="M3.27654 7.05308C5.08613 7.05308 6.55308 5.58613 6.55308 3.77654C6.55308 1.96696 5.08613 0.5 3.27654 0.5C1.46696 0.5 0 1.96696 0 3.77654C0 5.58613 1.46696 7.05308 3.27654 7.05308Z" fill="#6F757B"/>
<path d="M11.4992 7.05308C13.3088 7.05308 14.7757 5.58613 14.7757 3.77654C14.7757 1.96696 13.3088 0.5 11.4992 0.5C9.68961 0.5 8.22266 1.96696 8.22266 3.77654C8.22266 5.58613 9.68961 7.05308 11.4992 7.05308Z" fill="#6F757B"/>
<path d="M11.4992 15.2757C13.3088 15.2757 14.7757 13.8088 14.7757 11.9992C14.7757 10.1896 13.3088 8.72266 11.4992 8.72266C9.68961 8.72266 8.22266 10.1896 8.22266 11.9992C8.22266 13.8088 9.68961 15.2757 11.4992 15.2757Z" fill="#6F757B"/>
<path d="M11.4992 23.4984C13.3088 23.4984 14.7757 22.0314 14.7757 20.2219C14.7757 18.4123 13.3088 16.9453 11.4992 16.9453C9.68961 16.9453 8.22266 18.4123 8.22266 20.2219C8.22266 22.0314 9.68961 23.4984 11.4992 23.4984Z" fill="#6F757B"/>
<path d="M19.7219 7.05308C21.5314 7.05308 22.9984 5.58613 22.9984 3.77654C22.9984 1.96696 21.5314 0.5 19.7219 0.5C17.9123 0.5 16.4453 1.96696 16.4453 3.77654C16.4453 5.58613 17.9123 7.05308 19.7219 7.05308Z" fill="#6F757B"/>
</g>
<defs>
<clipPath id="clip0_2371_4243">
<rect width="23" height="23" fill="white" transform="translate(0 0.5)"/>
</clipPath>
</defs>
</svg>
